<?xml version="1.0" encoding="UTF-8" standalone="no"?>
<svg
   width="48"
   height="48"
   viewBox="0 0 48 48"
   fill="none"
   version="1.1"
   id="svg16"
   sodipodi:docname="Astra.OpcExplorer.svg"
   inkscape:version="1.2.1 (9c6d41e410, 2022-07-14)"
   xmlns:inkscape="http://www.inkscape.org/namespaces/inkscape"
   xmlns:sodipodi="http://sodipodi.sourceforge.net/DTD/sodipodi-0.dtd"
   xmlns="http://www.w3.org/2000/svg"
   xmlns:svg="http://www.w3.org/2000/svg">
  <defs
     id="defs20" />
  <sodipodi:namedview
     id="namedview18"
     pagecolor="#ffffff"
     bordercolor="#000000"
     borderopacity="0.25"
     inkscape:showpageshadow="2"
     inkscape:pageopacity="0.0"
     inkscape:pagecheckerboard="0"
     inkscape:deskcolor="#d1d1d1"
     showgrid="false"
     inkscape:zoom="1.5412718"
     inkscape:cx="-119.70633"
     inkscape:cy="-106.73004"
     inkscape:window-width="1488"
     inkscape:window-height="1040"
     inkscape:window-x="156"
     inkscape:window-y="0"
     inkscape:window-maximized="0"
     inkscape:current-layer="svg16" />
  <rect
     x="0.5"
     y="0.5"
     width="47"
     height="47"
     rx="2.5"
     fill="#747474"
     stroke="#414141"
     id="rect2" />
  <path
     d="m 22.571902,43.038227 v 0.900915 h -2.548621 v -0.900915 z m -2.241666,-4.594412 v 5.495327 h -0.973388 v -5.495327 z"
     fill="#ffffff"
     id="path6098"
     style="fill:#f2f2f2;stroke-width:0.744934" />
  <path
     d="m 13.312392,43.916085 -1.196824,-7.98e-4 -3.5267117,-5.497934 0.9827783,-0.01788 z m -0.144017,-5.481341 -3.2665612,5.43935 H 8.6926334 l 3.3032276,-5.43935 z"
     fill="#ffffff"
     id="path6098-8"
     style="fill:#f2f2f2;stroke-width:0.877194"
     sodipodi:nodetypes="cccccccccc" />
  <path
     d="M8.12283 19.0448L4.81458 22.353V31.9998H21.1676V6L8.12283 19.0448Z"
     fill="white"
     fill-opacity="0.8"
     id="path4" />
  <path
     d="M37.6639 18.9529L40.9721 15.6468V6H24.6191V31.9998L37.6639 18.9529Z"
     fill="white"
     id="path6" />
  <path
     d="M34.7591 25.8205L33.1812 27.3984V31.9999H40.9811V19.5962L34.7591 25.8205Z"
     fill="white"
     fill-opacity="0.6"
     id="path8" />
  <path
     d="M 16.223499,41.840114 H 14.75891 v -0.719962 h 1.464589 c 0.270576,0 0.489691,-0.04081 0.657347,-0.122355 0.167656,-0.08473 0.291159,-0.199286 0.370587,-0.343597 0.07943,-0.144311 0.119103,-0.310579 0.119103,-0.498803 0,-0.178755 -0.03967,-0.345106 -0.119103,-0.498803 -0.07943,-0.153697 -0.202931,-0.277644 -0.370587,-0.371756 -0.167656,-0.09721 -0.386771,-0.145904 -0.657347,-0.145904 h -1.244061 v 4.762347 h -0.816123 v -5.482309 h 2.060184 c 0.420632,0 0.776451,0.07534 1.067608,0.225853 0.294144,0.147495 0.516166,0.351391 0.666145,0.611771 0.152965,0.257279 0.229406,0.553695 0.229406,0.889415 0,0.263564 -0.04266,0.500395 -0.1279,0.710576 -0.08532,0.207081 -0.211731,0.384326 -0.379387,0.531738 -0.167655,0.147496 -0.373571,0.26038 -0.61767,0.338822 -0.244098,0.07534 -0.523474,0.112967 -0.838202,0.112967 z"
     fill="#ffffff"
     id="path14-0"
     style="fill:#f2f2f2;fill-opacity:1;stroke-width:0.811419" />
  <path
     d="m 28.077147,40.981954 v 0.306513 c 0,0.408655 -0.05598,0.775546 -0.167839,1.10067 -0.111949,0.321979 -0.272067,0.59756 -0.480349,0.826659 -0.208283,0.22604 -0.45859,0.399393 -0.750751,0.520147 -0.289171,0.117691 -0.612477,0.176496 -0.969998,0.176496 -0.351293,0 -0.673103,-0.05879 -0.965347,-0.176496 -0.289089,-0.120754 -0.540889,-0.294107 -0.755403,-0.520147 -0.211439,-0.229099 -0.374629,-0.50468 -0.489649,-0.826659 -0.115021,-0.325124 -0.172574,-0.692015 -0.172574,-1.10067 v -0.306513 c 0,-0.408742 0.05755,-0.774059 0.172574,-1.096039 0.11502,-0.325121 0.276632,-0.602192 0.484999,-0.831292 0.211356,-0.229181 0.461661,-0.402534 0.750751,-0.520145 0.292245,-0.120752 0.613973,-0.18113 0.965347,-0.18113 0.360593,0 0.685476,0.06037 0.974566,0.18113 0.292245,0.117611 0.542551,0.290964 0.750835,0.520145 0.211438,0.2291 0.37305,0.506171 0.484999,0.831292 0.111864,0.32198 0.167839,0.687297 0.167839,1.096039 z m -0.853399,0.306513 v -0.315778 c 0,-0.306513 -0.03413,-0.577462 -0.102557,-0.812764 -0.06835,-0.235302 -0.167838,-0.433469 -0.298474,-0.594499 -0.130549,-0.16095 -0.290665,-0.283274 -0.480264,-0.36689 -0.189681,-0.08353 -0.404193,-0.125387 -0.643537,-0.125387 -0.230128,0 -0.438409,0.04184 -0.624935,0.125387 -0.186525,0.08361 -0.34664,0.20594 -0.480265,0.36689 -0.130633,0.16103 -0.231621,0.359197 -0.303124,0.594499 -0.07151,0.235302 -0.107299,0.506251 -0.107299,0.812764 v 0.315778 c 0,0.306514 0.03581,0.578951 0.107299,0.817396 0.07151,0.235301 0.174068,0.434958 0.307775,0.59905 0.133625,0.161031 0.293741,0.283354 0.480266,0.366888 0.18968,0.08359 0.399543,0.125468 0.629583,0.125468 0.242502,0 0.457013,-0.04185 0.643539,-0.125468 0.186525,-0.08353 0.345063,-0.205857 0.475615,-0.366888 0.130633,-0.164092 0.228545,-0.363749 0.293821,-0.59905 0.06842,-0.238445 0.102557,-0.510882 0.102557,-0.817396 z"
     fill="#ffffff"
     id="path16"
     style="fill:#f2f2f2;fill-opacity:1;stroke-width:0.828774" />
  <path
     d="m 7.7036962,42.986147 v 0.906007 H 4.7394759 V 42.986147 Z M 5.0772375,38.365859 v 5.526295 h -1.071053 v -5.526295 z m 2.244281,2.215278 v 0.906007 H 4.7394759 v -0.906007 z m 0.3733482,-2.215278 v 0.910768 H 4.7394759 v -0.910768 z"
     fill="#ffffff"
     id="path6662"
     style="fill:#f2f2f2;fill-opacity:1;stroke-width:0.940323" />
  <path
     d="m 38.0451,42.986847 v 0.915409 h -2.948922 v -0.915409 z m -2.612904,-4.668234 v 5.583643 H 34.36667 v -5.583643 z m 2.232699,2.238266 v 0.915409 h -2.568717 v -0.915409 z m 0.371421,-2.238266 v 0.920219 h -2.940138 v -0.920219 z"
     fill="#ffffff"
     id="path6662-7"
     style="fill:#f2f2f2;fill-opacity:1;stroke-width:0.942748" />
  <path
     d="m 29.11298,38.384875 h 2.021937 c 0.335408,0 0.634427,0.03782 0.897057,0.113529 0.262631,0.07252 0.484131,0.179728 0.664493,0.321554 0.180353,0.141912 0.316414,0.316838 0.408184,0.524947 0.09492,0.208109 0.142384,0.447717 0.142384,0.718823 0,0.27119 -0.05537,0.512314 -0.166119,0.723539 -0.107585,0.208109 -0.264211,0.38472 -0.469888,0.529748 -0.202508,0.141827 -0.444573,0.25064 -0.726188,0.32627 l -0.26105,0.127679 h -1.870052 l -0.0095,-0.718823 h 1.414407 c 0.268962,0 0.492034,-0.04101 0.669234,-0.122962 0.177192,-0.08514 0.310092,-0.198592 0.398692,-0.340504 0.09176,-0.145028 0.137642,-0.307405 0.137642,-0.487131 0,-0.198593 -0.04272,-0.372003 -0.128149,-0.520147 -0.08544,-0.148228 -0.21992,-0.263274 -0.403443,-0.34522 -0.180361,-0.08514 -0.412926,-0.127763 -0.697711,-0.127763 h -1.139114 v 4.786003 h -0.882823 z m 3.441094,5.509542 -1.423899,-2.454525 0.925534,-0.0048 1.442884,2.411909 v 0.04734 z"
     fill="#ffffff"
     id="path4335"
     style="fill:#f2f2f2;stroke-width:0.843732" />
  <path
     d="m 39.106411,38.339404 h 2.021937 c 0.335408,0 0.634427,0.03791 0.897057,0.113825 0.262631,0.0727 0.484131,0.180195 0.664493,0.32239 0.180353,0.142282 0.316414,0.317663 0.408184,0.526313 0.09492,0.208651 0.142384,0.448882 0.142384,0.720694 0,0.271896 -0.05537,0.513646 -0.166119,0.725422 -0.107585,0.20865 -0.264211,0.38572 -0.469888,0.531126 -0.202508,0.142196 -0.444573,0.251292 -0.726188,0.327119 l -0.26105,0.128011 h -1.870052 l -0.0095,-0.720693 h 1.414407 c 0.268962,0 0.492034,-0.04112 0.669234,-0.123282 0.177192,-0.08537 0.310092,-0.199109 0.398692,-0.34139 0.09176,-0.145406 0.137642,-0.308205 0.137642,-0.488399 0,-0.19911 -0.04272,-0.372971 -0.128149,-0.521501 -0.08544,-0.148614 -0.21992,-0.263958 -0.403443,-0.346118 -0.180361,-0.08537 -0.412926,-0.128095 -0.697711,-0.128095 h -1.139114 v 4.798457 h -0.882823 z m 3.441094,5.523879 -1.423899,-2.460912 0.925534,-0.0048 1.442884,2.418185 v 0.04746 z"
     fill="#ffffff"
     id="path4335-1"
     style="fill:#f2f2f2;stroke-width:0.844829" />
</svg>
