<svg width="48" height="48" viewBox="0 0 48 48" fill="none" xmlns="http://www.w3.org/2000/svg">
<path d="M11 0H45C46.6569 0 48 1.34315 48 3V13H11V0Z" fill="url(#paint0_linear_507_1517)"/>
<path d="M22.4214 7.36182C22.4214 7.24365 22.3999 7.13802 22.3569 7.04492C22.3175 6.95182 22.2477 6.86768 22.1475 6.79248C22.0508 6.7137 21.9165 6.6403 21.7446 6.57227C21.5763 6.50423 21.3633 6.43978 21.1055 6.37891C20.7331 6.28939 20.4036 6.18913 20.1172 6.07812C19.8343 5.96354 19.5962 5.83105 19.4028 5.68066C19.2095 5.53027 19.0627 5.35303 18.9624 5.14893C18.8657 4.94482 18.8174 4.70671 18.8174 4.43457C18.8174 4.17318 18.8747 3.93506 18.9893 3.72021C19.1038 3.50179 19.2668 3.3138 19.478 3.15625C19.6893 2.99512 19.9399 2.87158 20.23 2.78564C20.52 2.69971 20.8387 2.65674 21.186 2.65674C21.6909 2.65674 22.1296 2.7391 22.502 2.90381C22.8743 3.06852 23.1626 3.2959 23.3667 3.58594C23.5744 3.8724 23.6782 4.2054 23.6782 4.58496H22.3838C22.3838 4.40592 22.3372 4.24479 22.2441 4.10156C22.1546 3.95833 22.0221 3.84375 21.8467 3.75781C21.6712 3.67188 21.451 3.62891 21.186 3.62891C20.9318 3.62891 20.7223 3.6665 20.5576 3.7417C20.3929 3.81331 20.2694 3.9082 20.187 4.02637C20.1082 4.14095 20.0688 4.26628 20.0688 4.40234C20.0688 4.50977 20.0921 4.60645 20.1387 4.69238C20.1888 4.77832 20.2676 4.8571 20.375 4.92871C20.4824 5.00033 20.6221 5.06836 20.7939 5.13281C20.9658 5.19727 21.1753 5.25993 21.4224 5.3208C21.7912 5.40674 22.117 5.50879 22.3999 5.62695C22.6828 5.74512 22.9191 5.88477 23.1089 6.0459C23.2987 6.20345 23.4401 6.38965 23.5332 6.60449C23.6299 6.81576 23.6782 7.05745 23.6782 7.32959C23.6782 7.60531 23.6209 7.85238 23.5063 8.0708C23.3918 8.28564 23.2271 8.46826 23.0122 8.61865C22.8009 8.76904 22.5467 8.88542 22.2495 8.96777C21.9523 9.04655 21.6211 9.08594 21.2559 9.08594C20.9336 9.08594 20.6131 9.04655 20.2944 8.96777C19.9793 8.889 19.6947 8.76725 19.4404 8.60254C19.1862 8.43783 18.9821 8.22835 18.8281 7.97412C18.6777 7.71631 18.6025 7.41374 18.6025 7.06641H19.9023C19.9023 7.2526 19.9346 7.41374 19.999 7.5498C20.0671 7.68229 20.1619 7.7915 20.2837 7.87744C20.409 7.9598 20.5576 8.02067 20.7295 8.06006C20.9014 8.09945 21.0911 8.11914 21.2988 8.11914C21.5602 8.11914 21.7733 8.08512 21.938 8.01709C22.1063 7.94548 22.228 7.85238 22.3032 7.73779C22.382 7.62321 22.4214 7.49788 22.4214 7.36182Z" fill="white"/>
<path d="M27.6152 2.74268V9H26.3208V2.74268H27.6152ZM29.6992 2.74268V3.77393H24.2637V2.74268H29.6992Z" fill="white"/>
<path d="M33.1421 4.02637L31.2622 9H29.9517L32.4707 2.74268H33.3408L33.1421 4.02637ZM34.877 9L32.9863 4.01562L32.7876 2.74268H33.6738L36.1875 9H34.877ZM34.7964 6.67969V7.65186H31.2192V6.67969H34.7964Z" fill="white"/>
<path d="M39.4424 2.74268V9H38.1479V2.74268H39.4424ZM41.5264 2.74268V3.77393H36.0908V2.74268H41.5264Z" fill="white"/>
<mask id="path-4-inside-1_507_1517" fill="white">
<path fill-rule="evenodd" clip-rule="evenodd" d="M12 0H3C1.34315 0 0 1.34315 0 3V45C0 46.6569 1.34315 48 3 48H45C46.6569 48 48 46.6569 48 45V12H12V0Z"/>
</mask>
<path fill-rule="evenodd" clip-rule="evenodd" d="M12 0H3C1.34315 0 0 1.34315 0 3V45C0 46.6569 1.34315 48 3 48H45C46.6569 48 48 46.6569 48 45V12H12V0Z" fill="#242627"/>
<path d="M12 0H13V-1H12V0ZM48 12H49V11H48V12ZM12 12H11V13H12V12ZM3 1H12V-1H3V1ZM1 3C1 1.89543 1.89543 1 3 1V-1C0.790861 -1 -1 0.790861 -1 3H1ZM1 45V3H-1V45H1ZM3 47C1.89543 47 1 46.1046 1 45H-1C-1 47.2091 0.790861 49 3 49V47ZM45 47H3V49H45V47ZM47 45C47 46.1046 46.1046 47 45 47V49C47.2091 49 49 47.2091 49 45H47ZM47 12V45H49V12H47ZM48 11H12V13H48V11ZM13 12V0H11V12H13Z" fill="#8C8C8C" mask="url(#path-4-inside-1_507_1517)"/>
<path d="M9.12283 29.0448L5.81458 32.353V41.9998H22.1676V16L9.12283 29.0448Z" fill="white" fill-opacity="0.8"/>
<path d="M38.6639 28.9529L41.9721 25.6468V16H25.6191V41.9998L38.6639 28.9529Z" fill="white"/>
<path d="M35.7591 35.8205L34.1812 37.3984V41.9999H41.9811V29.5962L35.7591 35.8205Z" fill="white" fill-opacity="0.6"/>
<defs>
<linearGradient id="paint0_linear_507_1517" x1="29.5" y1="0" x2="29.5" y2="13" gradientUnits="userSpaceOnUse">
<stop stop-color="#189A16"/>
<stop offset="0.723958" stop-color="#2F7B32"/>
<stop offset="1" stop-color="#13601A"/>
</linearGradient>
</defs>
</svg>
